<?xml version="1.0" standalone="no"?>
<svg xmlns="http://www.w3.org/2000/svg" width="500" height="500"><defs><clipPath id="clip-path-dot-color"><path d="M 28 184v 12h 6a 6 6, 0, 0, 0, 0 -12" transform="rotate(-90,34,190)"/><rect x="28" y="196" width="12" height="12" transform="rotate(0,34,202)"/><path d="M 28 208v 12h 6a 6 6, 0, 0, 0, 0 -12" transform="rotate(90,34,214)"/><path d="M 28 268v 12h 6a 6 6, 0, 0, 0, 0 -12" transform="rotate(-90,34,274)"/><rect x="28" y="280" width="12" height="12" transform="rotate(0,34,286)"/><path d="M 28 292v 12h 6a 6 6, 0, 0, 0, 0 -12" transform="rotate(90,34,298)"/><path d="M 28 316v 12h 12v -6a 6 6, 0, 0, 0, -6 -6" transform="rotate(-90,34,322)"/><path d="M 28 328v 12h 6a 6 6, 0, 0, 0, 0 -12" transform="rotate(90,34,334)"/><path d="M 28 364v 12h 6a 6 6, 0, 0, 0, 0 -12" transform="rotate(180,34,370)"/><path d="M 40 124v 12h 12v -6a 6 6, 0, 0, 0, -6 -6" transform="rotate(-90,46,130)"/><path d="M 40 136v 12h 6a 6 6, 0, 0, 0, 0 -12" transform="rotate(90,46,142)"/><path d="M 40 160v 12h 6a 6 6, 0, 0, 0, 0 -12" transform="rotate(-90,46,166)"/><path d="M 40 172v 12h 12v -6a 6 6, 0, 0, 0, -6 -6" transform="rotate(180,46,178)"/><path d="M 40 220v 12h 12v -6a 6 6, 0, 0, 0, -6 -6" transform="rotate(-90,46,226)"/><rect x="40" y="232" width="12" height="12" transform="rotate(0,46,238)"/><rect x="40" y="244" width="12" height="12" transform="rotate(0,46,250)"/><path d="M 40 256v 12h 12v -6a 6 6, 0, 0, 0, -6 -6" transform="rotate(180,46,262)"/><path d="M 40 280v 12h 6a 6 6, 0, 0, 0, 0 -12" transform="rotate(0,46,286)"/><path d="M 40 304v 12h 6a 6 6, 0, 0, 0, 0 -12" transform="rotate(-90,46,310)"/><path d="M 40 316v 12h 12v -6a 6 6, 0, 0, 0, -6 -6" transform="rotate(90,46,322)"/><path d="M 40 364v 12h 6a 6 6, 0, 0, 0, 0 -12" transform="rotate(0,46,370)"/><path d="M 52 124v 12h 6a 6 6, 0, 0, 0, 0 -12" transform="rotate(0,58,130)"/><path d="M 52 148v 12h 6a 6 6, 0, 0, 0, 0 -12" transform="rotate(180,58,154)"/><rect x="52" y="172" width="12" height="12" transform="rotate(0,58,178)"/><path d="M 52 196v 12h 12v -6a 6 6, 0, 0, 0, -6 -6" transform="rotate(-90,58,202)"/><rect x="52" y="208" width="12" height="12" transform="rotate(0,58,214)"/><rect x="52" y="220" width="12" height="12" transform="rotate(0,58,226)"/><rect x="52" y="244" width="12" height="12" transform="rotate(0,58,250)"/><rect x="52" y="256" width="12" height="12" transform="rotate(0,58,262)"/><path d="M 52 268v 12h 6a 6 6, 0, 0, 0, 0 -12" transform="rotate(90,58,274)"/><path d="M 52 328v 12h 12v -6a 6 6, 0, 0, 0, -6 -6" transform="rotate(-90,58,334)"/><rect x="52" y="340" width="12" height="12" transform="rotate(0,58,346)"/><path d="M 52 352v 12h 6a 6 6, 0, 0, 0, 0 -12" transform="rotate(90,58,358)"/><path d="M 64 136v 12h 6a 6 6, 0, 0, 0, 0 -12" transform="rotate(-90,70,142)"/><rect x="64" y="148" width="12" height="12" transform="rotate(0,70,154)"/><rect x="64" y="160" width="12" height="12" transform="rotate(0,70,166)"/><rect x="64" y="172" width="12" height="12" transform="rotate(0,70,178)"/><rect x="64" y="184" width="12" height="12" transform="rotate(0,70,190)"/><rect x="64" y="196" width="12" height="12" transform="rotate(0,70,202)"/><rect x="64" y="208" width="12" height="12" transform="rotate(0,70,214)"/><rect x="64" y="220" width="12" height="12" transform="rotate(0,70,226)"/><rect x="64" y="232" width="12" height="12" transform="rotate(0,70,238)"/><rect x="64" y="244" width="12" height="12" transform="rotate(0,70,250)"/><circle cx="70" cy="298" r="6" transform="rotate(0,70,298)"/><path d="M 64 316v 12h 12v -6a 6 6, 0, 0, 0, -6 -6" transform="rotate(-90,70,322)"/><path d="M 64 328v 12h 12v -6a 6 6, 0, 0, 0, -6 -6" transform="rotate(90,70,334)"/><rect x="76" y="160" width="12" height="12" transform="rotate(0,82,166)"/><rect x="76" y="172" width="12" height="12" transform="rotate(0,82,178)"/><path d="M 76 184v 12h 12v -6a 6 6, 0, 0, 0, -6 -6" transform="rotate(90,82,190)"/><rect x="76" y="208" width="12" height="12" transform="rotate(0,82,214)"/><rect x="76" y="232" width="12" height="12" transform="rotate(0,82,238)"/><rect x="76" y="244" width="12" height="12" transform="rotate(0,82,250)"/><rect x="76" y="256" width="12" height="12" transform="rotate(0,82,262)"/><path d="M 76 268v 12h 12v -6a 6 6, 0, 0, 0, -6 -6" transform="rotate(180,82,274)"/><rect x="76" y="316" width="12" height="12" transform="rotate(0,82,322)"/><path d="M 76 340v 12h 6a 6 6, 0, 0, 0, 0 -12" transform="rotate(-90,82,346)"/><path d="M 76 352v 12h 6a 6 6, 0, 0, 0, 0 -12" transform="rotate(90,82,358)"/><path d="M 88 136v 12h 6a 6 6, 0, 0, 0, 0 -12" transform="rotate(-90,94,142)"/><rect x="88" y="148" width="12" height="12" transform="rotate(0,94,154)"/><path d="M 88 160v 12h 12v -6a 6 6, 0, 0, 0, -6 -6" transform="rotate(90,94,166)"/><path d="M 88 196v 12h 12v -6a 6 6, 0, 0, 0, -6 -6" transform="rotate(-90,94,202)"/><path d="M 88 208v 12h 12v -6a 6 6, 0, 0, 0, -6 -6" transform="rotate(90,94,214)"/><path d="M 88 232v 12h 12v -6a 6 6, 0, 0, 0, -6 -6" transform="rotate(0,94,238)"/><rect x="88" y="244" width="12" height="12" transform="rotate(0,94,250)"/><rect x="88" y="256" width="12" height="12" transform="rotate(0,94,262)"/><rect x="88" y="268" width="12" height="12" transform="rotate(0,94,274)"/><rect x="88" y="316" width="12" height="12" transform="rotate(0,94,322)"/><path d="M 88 328v 12h 6a 6 6, 0, 0, 0, 0 -12" transform="rotate(90,94,334)"/><circle cx="106" cy="130" r="6" transform="rotate(0,106,130)"/><rect x="100" y="148" width="12" height="12" transform="rotate(0,106,154)"/><circle cx="106" cy="178" r="6" transform="rotate(0,106,178)"/><path d="M 100 196v 12h 6a 6 6, 0, 0, 0, 0 -12" transform="rotate(0,106,202)"/><circle cx="106" cy="226" r="6" transform="rotate(0,106,226)"/><rect x="100" y="244" width="12" height="12" transform="rotate(0,106,250)"/><path d="M 100 268v 12h 6a 6 6, 0, 0, 0, 0 -12" transform="rotate(0,106,274)"/><path d="M 100 292v 12h 6a 6 6, 0, 0, 0, 0 -12" transform="rotate(180,106,298)"/><rect x="100" y="316" width="12" height="12" transform="rotate(0,106,322)"/><circle cx="106" cy="346" r="6" transform="rotate(0,106,346)"/><path d="M 100 364v 12h 6a 6 6, 0, 0, 0, 0 -12" transform="rotate(180,106,370)"/><path d="M 112 136v 12h 12v -6a 6 6, 0, 0, 0, -6 -6" transform="rotate(-90,118,142)"/><rect x="112" y="148" width="12" height="12" transform="rotate(0,118,154)"/><path d="M 112 160v 12h 12v -6a 6 6, 0, 0, 0, -6 -6" transform="rotate(180,118,166)"/><circle cx="118" cy="214" r="6" transform="rotate(0,118,214)"/><path d="M 112 232v 12h 6a 6 6, 0, 0, 0, 0 -12" transform="rotate(-90,118,238)"/><rect x="112" y="244" width="12" height="12" transform="rotate(0,118,250)"/><path d="M 112 256v 12h 12v -6a 6 6, 0, 0, 0, -6 -6" transform="rotate(180,118,262)"/><path d="M 112 292v 12h 6a 6 6, 0, 0, 0, 0 -12" transform="rotate(0,118,298)"/><path d="M 112 316v 12h 6a 6 6, 0, 0, 0, 0 -12" transform="rotate(0,118,322)"/><path d="M 112 352v 12h 12v -6a 6 6, 0, 0, 0, -6 -6" transform="rotate(-90,118,358)"/><rect x="112" y="364" width="12" height="12" transform="rotate(0,118,370)"/><path d="M 124 40v 12h 6a 6 6, 0, 0, 0, 0 -12" transform="rotate(-90,130,46)"/><rect x="124" y="52" width="12" height="12" transform="rotate(0,130,58)"/><path d="M 124 64v 12h 6a 6 6, 0, 0, 0, 0 -12" transform="rotate(90,130,70)"/><path d="M 124 88v 12h 12v -6a 6 6, 0, 0, 0, -6 -6" transform="rotate(-90,130,94)"/><path d="M 124 100v 12h 6a 6 6, 0, 0, 0, 0 -12" transform="rotate(90,130,106)"/><path d="M 124 136v 12h 12v -6a 6 6, 0, 0, 0, -6 -6" transform="rotate(0,130,142)"/><rect x="124" y="148" width="12" height="12" transform="rotate(0,130,154)"/><rect x="124" y="160" width="12" height="12" transform="rotate(0,130,166)"/><path d="M 124 172v 12h 12v -6a 6 6, 0, 0, 0, -6 -6" transform="rotate(180,130,178)"/><rect x="124" y="244" width="12" height="12" transform="rotate(0,130,250)"/><rect x="124" y="256" width="12" height="12" transform="rotate(0,130,262)"/><circle cx="130" cy="286" r="6" transform="rotate(0,130,286)"/><path d="M 124 304v 12h 6a 6 6, 0, 0, 0, 0 -12" transform="rotate(180,130,310)"/><path d="M 124 328v 12h 6a 6 6, 0, 0, 0, 0 -12" transform="rotate(180,130,334)"/><rect x="124" y="352" width="12" height="12" transform="rotate(0,130,358)"/><rect x="124" y="364" width="12" height="12" transform="rotate(0,130,370)"/><path d="M 124 436v 12h 12v -6a 6 6, 0, 0, 0, -6 -6" transform="rotate(-90,130,442)"/><path d="M 124 448v 12h 6a 6 6, 0, 0, 0, 0 -12" transform="rotate(90,130,454)"/><path d="M 136 76v 12h 12v -6a 6 6, 0, 0, 0, -6 -6" transform="rotate(-90,142,82)"/><path d="M 136 88v 12h 12v -6a 6 6, 0, 0, 0, -6 -6" transform="rotate(90,142,94)"/><path d="M 136 124v 12h 6a 6 6, 0, 0, 0, 0 -12" transform="rotate(180,142,130)"/><rect x="136" y="148" width="12" height="12" transform="rotate(0,142,154)"/><rect x="136" y="160" width="12" height="12" transform="rotate(0,142,166)"/><path d="M 136 172v 12h 12v -6a 6 6, 0, 0, 0, -6 -6" transform="rotate(90,142,178)"/><path d="M 136 196v 12h 12v -6a 6 6, 0, 0, 0, -6 -6" transform="rotate(-90,142,202)"/><rect x="136" y="208" width="12" height="12" transform="rotate(0,142,214)"/><rect x="136" y="220" width="12" height="12" transform="rotate(0,142,226)"/><rect x="136" y="232" width="12" height="12" transform="rotate(0,142,238)"/><rect x="136" y="244" width="12" height="12" transform="rotate(0,142,250)"/><rect x="136" y="256" width="12" height="12" transform="rotate(0,142,262)"/><path d="M 136 268v 12h 6a 6 6, 0, 0, 0, 0 -12" transform="rotate(90,142,274)"/><rect x="136" y="304" width="12" height="12" transform="rotate(0,142,310)"/><rect x="136" y="328" width="12" height="12" transform="rotate(0,142,334)"/><rect x="136" y="340" width="12" height="12" transform="rotate(0,142,346)"/><rect x="136" y="352" width="12" height="12" transform="rotate(0,142,358)"/><path d="M 136 364v 12h 12v -6a 6 6, 0, 0, 0, -6 -6" transform="rotate(90,142,370)"/><circle cx="142" cy="406" r="6" transform="rotate(0,142,406)"/><path d="M 136 424v 12h 6a 6 6, 0, 0, 0, 0 -12" transform="rotate(-90,142,430)"/><path d="M 136 436v 12h 12v -6a 6 6, 0, 0, 0, -6 -6" transform="rotate(90,142,442)"/><path d="M 148 28v 12h 12v -6a 6 6, 0, 0, 0, -6 -6" transform="rotate(-90,154,34)"/><rect x="148" y="40" width="12" height="12" transform="rotate(0,154,46)"/><path d="M 148 52v 12h 12v -6a 6 6, 0, 0, 0, -6 -6" transform="rotate(180,154,58)"/><rect x="148" y="76" width="12" height="12" transform="rotate(0,154,82)"/><path d="M 148 100v 12h 6a 6 6, 0, 0, 0, 0 -12" transform="rotate(-90,154,106)"/><rect x="148" y="112" width="12" height="12" transform="rotate(0,154,118)"/><rect x="148" y="124" width="12" height="12" transform="rotate(0,154,130)"/><rect x="148" y="136" width="12" height="12" transform="rotate(0,154,142)"/><path d="M 148 148v 12h 12v -6a 6 6, 0, 0, 0, -6 -6" transform="rotate(90,154,154)"/><path d="M 148 184v 12h 6a 6 6, 0, 0, 0, 0 -12" transform="rotate(-90,154,190)"/><rect x="148" y="196" width="12" height="12" transform="rotate(0,154,202)"/><rect x="148" y="208" width="12" height="12" transform="rotate(0,154,214)"/><rect x="148" y="232" width="12" height="12" transform="rotate(0,154,238)"/><rect x="148" y="244" width="12" height="12" transform="rotate(0,154,250)"/><path d="M 148 304v 12h 12v -6a 6 6, 0, 0, 0, -6 -6" transform="rotate(0,154,310)"/><rect x="148" y="316" width="12" height="12" transform="rotate(0,154,322)"/><rect x="148" y="328" width="12" height="12" transform="rotate(0,154,334)"/><rect x="148" y="352" width="12" height="12" transform="rotate(0,154,358)"/><circle cx="154" cy="382" r="6" transform="rotate(0,154,382)"/><circle cx="154" cy="418" r="6" transform="rotate(0,154,418)"/><rect x="160" y="28" width="12" height="12" transform="rotate(0,166,34)"/><rect x="160" y="40" width="12" height="12" transform="rotate(0,166,46)"/><path d="M 160 52v 12h 12v -6a 6 6, 0, 0, 0, -6 -6" transform="rotate(90,166,58)"/><rect x="160" y="76" width="12" height="12" transform="rotate(0,166,82)"/><path d="M 160 88v 12h 12v -6a 6 6, 0, 0, 0, -6 -6" transform="rotate(180,166,94)"/><path d="M 160 160v 12h 12v -6a 6 6, 0, 0, 0, -6 -6" transform="rotate(-90,166,166)"/><path d="M 160 172v 12h 6a 6 6, 0, 0, 0, 0 -12" transform="rotate(90,166,178)"/><rect x="160" y="208" width="12" height="12" transform="rotate(0,166,214)"/><rect x="160" y="232" width="12" height="12" transform="rotate(0,166,238)"/><rect x="160" y="244" width="12" height="12" transform="rotate(0,166,250)"/><path d="M 160 256v 12h 6a 6 6, 0, 0, 0, 0 -12" transform="rotate(90,166,262)"/><rect x="160" y="316" width="12" height="12" transform="rotate(0,166,322)"/><rect x="160" y="328" width="12" height="12" transform="rotate(0,166,334)"/><rect x="160" y="340" width="12" height="12" transform="rotate(0,166,346)"/><path d="M 160 352v 12h 12v -6a 6 6, 0, 0, 0, -6 -6" transform="rotate(90,166,358)"/><path d="M 160 436v 12h 12v -6a 6 6, 0, 0, 0, -6 -6" transform="rotate(-90,166,442)"/><rect x="160" y="448" width="12" height="12" transform="rotate(0,166,454)"/><path d="M 160 460v 12h 12v -6a 6 6, 0, 0, 0, -6 -6" transform="rotate(180,166,466)"/><rect x="172" y="28" width="12" height="12" transform="rotate(0,178,34)"/><path d="M 172 40v 12h 12v -6a 6 6, 0, 0, 0, -6 -6" transform="rotate(90,178,46)"/><path d="M 172 64v 12h 12v -6a 6 6, 0, 0, 0, -6 -6" transform="rotate(-90,178,70)"/><rect x="172" y="76" width="12" height="12" transform="rotate(0,178,82)"/><rect x="172" y="88" width="12" height="12" transform="rotate(0,178,94)"/><rect x="172" y="100" width="12" height="12" transform="rotate(0,178,106)"/><rect x="172" y="112" width="12" height="12" transform="rotate(0,178,118)"/><rect x="172" y="124" width="12" height="12" transform="rotate(0,178,130)"/><path d="M 172 136v 12h 6a 6 6, 0, 0, 0, 0 -12" transform="rotate(90,178,142)"/><rect x="172" y="160" width="12" height="12" transform="rotate(0,178,166)"/><rect x="172" y="208" width="12" height="12" transform="rotate(0,178,214)"/><rect x="172" y="232" width="12" height="12" transform="rotate(0,178,238)"/><path d="M 172 268v 12h 6a 6 6, 0, 0, 0, 0 -12" transform="rotate(180,178,274)"/><path d="M 172 292v 12h 6a 6 6, 0, 0, 0, 0 -12" transform="rotate(-90,178,298)"/><rect x="172" y="304" width="12" height="12" transform="rotate(0,178,310)"/><rect x="172" y="316" width="12" height="12" transform="rotate(0,178,322)"/><rect x="172" y="328" width="12" height="12" transform="rotate(0,178,334)"/><rect x="172" y="340" width="12" height="12" transform="rotate(0,178,346)"/><path d="M 172 376v 12h 6a 6 6, 0, 0, 0, 0 -12" transform="rotate(-90,178,382)"/><path d="M 172 388v 12h 12v -6a 6 6, 0, 0, 0, -6 -6" transform="rotate(180,178,394)"/><path d="M 172 412v 12h 12v -6a 6 6, 0, 0, 0, -6 -6" transform="rotate(-90,178,418)"/><rect x="172" y="424" width="12" height="12" transform="rotate(0,178,430)"/><rect x="172" y="436" width="12" height="12" transform="rotate(0,178,442)"/><rect x="172" y="460" width="12" height="12" transform="rotate(0,178,466)"/><path d="M 184 28v 12h 6a 6 6, 0, 0, 0, 0 -12" transform="rotate(0,190,34)"/><path d="M 184 52v 12h 12v -6a 6 6, 0, 0, 0, -6 -6" transform="rotate(-90,190,58)"/><path d="M 184 64v 12h 12v -6a 6 6, 0, 0, 0, -6 -6" transform="rotate(90,190,70)"/><rect x="184" y="88" width="12" height="12" transform="rotate(0,190,94)"/><rect x="184" y="112" width="12" height="12" transform="rotate(0,190,118)"/><rect x="184" y="124" width="12" height="12" transform="rotate(0,190,130)"/><path d="M 184 148v 12h 12v -6a 6 6, 0, 0, 0, -6 -6" transform="rotate(-90,190,154)"/><rect x="184" y="160" width="12" height="12" transform="rotate(0,190,166)"/><rect x="184" y="172" width="12" height="12" transform="rotate(0,190,178)"/><rect x="184" y="184" width="12" height="12" transform="rotate(0,190,190)"/><rect x="184" y="196" width="12" height="12" transform="rotate(0,190,202)"/><path d="M 184 208v 12h 12v -6a 6 6, 0, 0, 0, -6 -6" transform="rotate(90,190,214)"/><rect x="184" y="232" width="12" height="12" transform="rotate(0,190,238)"/><path d="M 184 244v 12h 12v -6a 6 6, 0, 0, 0, -6 -6" transform="rotate(180,190,250)"/><rect x="184" y="268" width="12" height="12" transform="rotate(0,190,274)"/><path d="M 184 280v 12h 12v -6a 6 6, 0, 0, 0, -6 -6" transform="rotate(180,190,286)"/><rect x="184" y="316" width="12" height="12" transform="rotate(0,190,322)"/><rect x="184" y="328" width="12" height="12" transform="rotate(0,190,334)"/><rect x="184" y="340" width="12" height="12" transform="rotate(0,190,346)"/><rect x="184" y="352" width="12" height="12" transform="rotate(0,190,358)"/><path d="M 184 364v 12h 6a 6 6, 0, 0, 0, 0 -12" transform="rotate(90,190,370)"/><path d="M 184 388v 12h 6a 6 6, 0, 0, 0, 0 -12" transform="rotate(0,190,394)"/><rect x="184" y="412" width="12" height="12" transform="rotate(0,190,418)"/><rect x="184" y="436" width="12" height="12" transform="rotate(0,190,442)"/><path d="M 184 460v 12h 6a 6 6, 0, 0, 0, 0 -12" transform="rotate(0,190,466)"/><path d="M 196 52v 12h 6a 6 6, 0, 0, 0, 0 -12" transform="rotate(0,202,58)"/><path d="M 196 76v 12h 12v -6a 6 6, 0, 0, 0, -6 -6" transform="rotate(-90,202,82)"/><rect x="196" y="88" width="12" height="12" transform="rotate(0,202,94)"/><rect x="196" y="100" width="12" height="12" transform="rotate(0,202,106)"/><rect x="196" y="112" width="12" height="12" transform="rotate(0,202,118)"/><rect x="196" y="124" width="12" height="12" transform="rotate(0,202,130)"/><path d="M 196 148v 12h 12v -6a 6 6, 0, 0, 0, -6 -6" transform="rotate(0,202,154)"/><rect x="196" y="160" width="12" height="12" transform="rotate(0,202,166)"/><rect x="196" y="172" width="12" height="12" transform="rotate(0,202,178)"/><path d="M 196 220v 12h 12v -6a 6 6, 0, 0, 0, -6 -6" transform="rotate(-90,202,226)"/><rect x="196" y="232" width="12" height="12" transform="rotate(0,202,238)"/><rect x="196" y="244" width="12" height="12" transform="rotate(0,202,250)"/><rect x="196" y="256" width="12" height="12" transform="rotate(0,202,262)"/><rect x="196" y="268" width="12" height="12" transform="rotate(0,202,274)"/><path d="M 196 280v 12h 12v -6a 6 6, 0, 0, 0, -6 -6" transform="rotate(90,202,286)"/><path d="M 196 316v 12h 6a 6 6, 0, 0, 0, 0 -12" transform="rotate(0,202,322)"/><path d="M 196 340v 12h 6a 6 6, 0, 0, 0, 0 -12" transform="rotate(0,202,346)"/><rect x="196" y="412" width="12" height="12" transform="rotate(0,202,418)"/><path d="M 196 436v 12h 12v -6a 6 6, 0, 0, 0, -6 -6" transform="rotate(0,202,442)"/><path d="M 196 448v 12h 12v -6a 6 6, 0, 0, 0, -6 -6" transform="rotate(180,202,454)"/><path d="M 208 28v 12h 6a 6 6, 0, 0, 0, 0 -12" transform="rotate(-90,214,34)"/><path d="M 208 40v 12h 6a 6 6, 0, 0, 0, 0 -12" transform="rotate(90,214,46)"/><rect x="208" y="76" width="12" height="12" transform="rotate(0,214,82)"/><path d="M 208 88v 12h 12v -6a 6 6, 0, 0, 0, -6 -6" transform="rotate(90,214,94)"/><rect x="208" y="124" width="12" height="12" transform="rotate(0,214,130)"/><path d="M 208 136v 12h 6a 6 6, 0, 0, 0, 0 -12" transform="rotate(90,214,142)"/><rect x="208" y="160" width="12" height="12" transform="rotate(0,214,166)"/><rect x="208" y="172" width="12" height="12" transform="rotate(0,214,178)"/><rect x="208" y="184" width="12" height="12" transform="rotate(0,214,190)"/><rect x="208" y="196" width="12" height="12" transform="rotate(0,214,202)"/><rect x="208" y="208" width="12" height="12" transform="rotate(0,214,214)"/><path d="M 208 220v 12h 12v -6a 6 6, 0, 0, 0, -6 -6" transform="rotate(90,214,226)"/><rect x="208" y="256" width="12" height="12" transform="rotate(0,214,262)"/><path d="M 208 268v 12h 12v -6a 6 6, 0, 0, 0, -6 -6" transform="rotate(90,214,274)"/><path d="M 208 364v 12h 6a 6 6, 0, 0, 0, 0 -12" transform="rotate(-90,214,370)"/><path d="M 208 376v 12h 6a 6 6, 0, 0, 0, 0 -12" transform="rotate(90,214,382)"/><path d="M 208 400v 12h 6a 6 6, 0, 0, 0, 0 -12" transform="rotate(-90,214,406)"/><path d="M 208 412v 12h 12v -6a 6 6, 0, 0, 0, -6 -6" transform="rotate(90,214,418)"/><rect x="208" y="448" width="12" height="12" transform="rotate(0,214,454)"/><path d="M 220 52v 12h 12v -6a 6 6, 0, 0, 0, -6 -6" transform="rotate(-90,226,58)"/><rect x="220" y="64" width="12" height="12" transform="rotate(0,226,70)"/><rect x="220" y="76" width="12" height="12" transform="rotate(0,226,82)"/><circle cx="226" cy="106" r="6" transform="rotate(0,226,106)"/><rect x="220" y="124" width="12" height="12" transform="rotate(0,226,130)"/><path d="M 220 148v 12h 12v -6a 6 6, 0, 0, 0, -6 -6" transform="rotate(-90,226,154)"/><path d="M 220 160v 12h 12v -6a 6 6, 0, 0, 0, -6 -6" transform="rotate(90,226,166)"/><path d="M 220 196v 12h 12v -6a 6 6, 0, 0, 0, -6 -6" transform="rotate(0,226,202)"/><path d="M 220 208v 12h 12v -6a 6 6, 0, 0, 0, -6 -6" transform="rotate(90,226,214)"/><path d="M 220 256v 12h 6a 6 6, 0, 0, 0, 0 -12" transform="rotate(0,226,262)"/><path d="M 220 292v 12h 6a 6 6, 0, 0, 0, 0 -12" transform="rotate(180,226,298)"/><circle cx="226" cy="334" r="6" transform="rotate(0,226,334)"/><path d="M 220 352v 12h 6a 6 6, 0, 0, 0, 0 -12" transform="rotate(180,226,358)"/><path d="M 220 424v 12h 12v -6a 6 6, 0, 0, 0, -6 -6" transform="rotate(-90,226,430)"/><rect x="220" y="436" width="12" height="12" transform="rotate(0,226,442)"/><path d="M 220 448v 12h 12v -6a 6 6, 0, 0, 0, -6 -6" transform="rotate(90,226,454)"/><path d="M 232 40v 12h 12v -6a 6 6, 0, 0, 0, -6 -6" transform="rotate(-90,238,46)"/><rect x="232" y="52" width="12" height="12" transform="rotate(0,238,58)"/><rect x="232" y="76" width="12" height="12" transform="rotate(0,238,82)"/><path d="M 232 124v 12h 6a 6 6, 0, 0, 0, 0 -12" transform="rotate(0,238,130)"/><path d="M 232 148v 12h 6a 6 6, 0, 0, 0, 0 -12" transform="rotate(0,238,154)"/><path d="M 232 220v 12h 12v -6a 6 6, 0, 0, 0, -6 -6" transform="rotate(-90,238,226)"/><rect x="232" y="232" width="12" height="12" transform="rotate(0,238,238)"/><path d="M 232 244v 12h 6a 6 6, 0, 0, 0, 0 -12" transform="rotate(90,238,250)"/><path d="M 232 268v 12h 12v -6a 6 6, 0, 0, 0, -6 -6" transform="rotate(-90,238,274)"/><rect x="232" y="280" width="12" height="12" transform="rotate(0,238,286)"/><rect x="232" y="292" width="12" height="12" transform="rotate(0,238,298)"/><path d="M 232 316v 12h 6a 6 6, 0, 0, 0, 0 -12" transform="rotate(180,238,322)"/><rect x="232" y="352" width="12" height="12" transform="rotate(0,238,358)"/><circle cx="238" cy="394" r="6" transform="rotate(0,238,394)"/><rect x="232" y="424" width="12" height="12" transform="rotate(0,238,430)"/><path d="M 232 436v 12h 12v -6a 6 6, 0, 0, 0, -6 -6" transform="rotate(90,238,442)"/><path d="M 232 460v 12h 6a 6 6, 0, 0, 0, 0 -12" transform="rotate(180,238,466)"/><path d="M 244 28v 12h 6a 6 6, 0, 0, 0, 0 -12" transform="rotate(-90,250,34)"/><rect x="244" y="40" width="12" height="12" transform="rotate(0,250,46)"/><rect x="244" y="52" width="12" height="12" transform="rotate(0,250,58)"/><path d="M 244 76v 12h 12v -6a 6 6, 0, 0, 0, -6 -6" transform="rotate(0,250,82)"/><rect x="244" y="88" width="12" height="12" transform="rotate(0,250,94)"/><path d="M 244 100v 12h 6a 6 6, 0, 0, 0, 0 -12" transform="rotate(90,250,106)"/><path d="M 244 136v 12h 6a 6 6, 0, 0, 0, 0 -12" transform="rotate(180,250,142)"/><path d="M 244 160v 12h 6a 6 6, 0, 0, 0, 0 -12" transform="rotate(180,250,166)"/><path d="M 244 196v 12h 6a 6 6, 0, 0, 0, 0 -12" transform="rotate(180,250,202)"/><path d="M 244 220v 12h 12v -6a 6 6, 0, 0, 0, -6 -6" transform="rotate(0,250,226)"/><rect x="244" y="232" width="12" height="12" transform="rotate(0,250,238)"/><path d="M 244 268v 12h 6a 6 6, 0, 0, 0, 0 -12" transform="rotate(0,250,274)"/><rect x="244" y="292" width="12" height="12" transform="rotate(0,250,298)"/><rect x="244" y="304" width="12" height="12" transform="rotate(0,250,310)"/><rect x="244" y="316" width="12" height="12" transform="rotate(0,250,322)"/><rect x="244" y="328" width="12" height="12" transform="rotate(0,250,334)"/><rect x="244" y="340" width="12" height="12" transform="rotate(0,250,346)"/><rect x="244" y="352" width="12" height="12" transform="rotate(0,250,358)"/><rect x="244" y="364" width="12" height="12" transform="rotate(0,250,370)"/><path d="M 244 376v 12h 12v -6a 6 6, 0, 0, 0, -6 -6" transform="rotate(180,250,382)"/><path d="M 244 400v 12h 6a 6 6, 0, 0, 0, 0 -12" transform="rotate(180,250,406)"/><rect x="244" y="424" width="12" height="12" transform="rotate(0,250,430)"/><path d="M 244 448v 12h 6a 6 6, 0, 0, 0, 0 -12" transform="rotate(-90,250,454)"/><rect x="244" y="460" width="12" height="12" transform="rotate(0,250,466)"/><rect x="256" y="52" width="12" height="12" transform="rotate(0,262,58)"/><path d="M 256 88v 12h 6a 6 6, 0, 0, 0, 0 -12" transform="rotate(0,262,94)"/><path d="M 256 112v 12h 6a 6 6, 0, 0, 0, 0 -12" transform="rotate(180,262,118)"/><path d="M 256 136v 12h 12v -6a 6 6, 0, 0, 0, -6 -6" transform="rotate(0,262,142)"/><rect x="256" y="148" width="12" height="12" transform="rotate(0,262,154)"/><rect x="256" y="160" width="12" height="12" transform="rotate(0,262,166)"/><path d="M 256 184v 12h 12v -6a 6 6, 0, 0, 0, -6 -6" transform="rotate(-90,262,190)"/><rect x="256" y="196" width="12" height="12" transform="rotate(0,262,202)"/><path d="M 256 208v 12h 12v -6a 6 6, 0, 0, 0, -6 -6" transform="rotate(180,262,214)"/><path d="M 256 232v 12h 12v -6a 6 6, 0, 0, 0, -6 -6" transform="rotate(0,262,238)"/><rect x="256" y="244" width="12" height="12" transform="rotate(0,262,250)"/><path d="M 256 256v 12h 6a 6 6, 0, 0, 0, 0 -12" transform="rotate(90,262,262)"/><path d="M 256 292v 12h 6a 6 6, 0, 0, 0, 0 -12" transform="rotate(0,262,298)"/><path d="M 256 316v 12h 6a 6 6, 0, 0, 0, 0 -12" transform="rotate(0,262,322)"/><rect x="256" y="340" width="12" height="12" transform="rotate(0,262,346)"/><rect x="256" y="376" width="12" height="12" transform="rotate(0,262,382)"/><rect x="256" y="388" width="12" height="12" transform="rotate(0,262,394)"/><rect x="256" y="400" width="12" height="12" transform="rotate(0,262,406)"/><rect x="256" y="412" width="12" height="12" transform="rotate(0,262,418)"/><rect x="256" y="424" width="12" height="12" transform="rotate(0,262,430)"/><path d="M 256 460v 12h 6a 6 6, 0, 0, 0, 0 -12" transform="rotate(0,262,466)"/><rect x="268" y="52" width="12" height="12" transform="rotate(0,274,58)"/><rect x="268" y="64" width="12" height="12" transform="rotate(0,274,70)"/><path d="M 268 76v 12h 12v -6a 6 6, 0, 0, 0, -6 -6" transform="rotate(180,274,82)"/><path d="M 268 100v 12h 6a 6 6, 0, 0, 0, 0 -12" transform="rotate(-90,274,106)"/><rect x="268" y="112" width="12" height="12" transform="rotate(0,274,118)"/><path d="M 268 124v 12h 6a 6 6, 0, 0, 0, 0 -12" transform="rotate(90,274,130)"/><path d="M 268 160v 12h 12v -6a 6 6, 0, 0, 0, -6 -6" transform="rotate(0,274,166)"/><rect x="268" y="172" width="12" height="12" transform="rotate(0,274,178)"/><path d="M 268 184v 12h 12v -6a 6 6, 0, 0, 0, -6 -6" transform="rotate(90,274,190)"/><path d="M 268 208v 12h 6a 6 6, 0, 0, 0, 0 -12" transform="rotate(0,274,214)"/><rect x="268" y="244" width="12" height="12" transform="rotate(0,274,250)"/><path d="M 268 268v 12h 12v -6a 6 6, 0, 0, 0, -6 -6" transform="rotate(-90,274,274)"/><path d="M 268 280v 12h 6a 6 6, 0, 0, 0, 0 -12" transform="rotate(90,274,286)"/><path d="M 268 304v 12h 6a 6 6, 0, 0, 0, 0 -12" transform="rotate(180,274,310)"/><path d="M 268 340v 12h 12v -6a 6 6, 0, 0, 0, -6 -6" transform="rotate(0,274,346)"/><rect x="268" y="352" width="12" height="12" transform="rotate(0,274,358)"/><rect x="268" y="364" width="12" height="12" transform="rotate(0,274,370)"/><path d="M 268 376v 12h 12v -6a 6 6, 0, 0, 0, -6 -6" transform="rotate(90,274,382)"/><path d="M 268 412v 12h 12v -6a 6 6, 0, 0, 0, -6 -6" transform="rotate(0,274,418)"/><path d="M 268 424v 12h 12v -6a 6 6, 0, 0, 0, -6 -6" transform="rotate(90,274,430)"/><path d="M 280 28v 12h 12v -6a 6 6, 0, 0, 0, -6 -6" transform="rotate(-90,286,34)"/><rect x="280" y="40" width="12" height="12" transform="rotate(0,286,46)"/><rect x="280" y="52" width="12" height="12" transform="rotate(0,286,58)"/><path d="M 280 76v 12h 6a 6 6, 0, 0, 0, 0 -12" transform="rotate(0,286,82)"/><rect x="280" y="112" width="12" height="12" transform="rotate(0,286,118)"/><circle cx="286" cy="142" r="6" transform="rotate(0,286,142)"/><path d="M 280 196v 12h 6a 6 6, 0, 0, 0, 0 -12" transform="rotate(180,286,202)"/><rect x="280" y="244" width="12" height="12" transform="rotate(0,286,250)"/><rect x="280" y="256" width="12" height="12" transform="rotate(0,286,262)"/><path d="M 280 268v 12h 12v -6a 6 6, 0, 0, 0, -6 -6" transform="rotate(90,286,274)"/><rect x="280" y="304" width="12" height="12" transform="rotate(0,286,310)"/><rect x="280" y="316" width="12" height="12" transform="rotate(0,286,322)"/><path d="M 280 328v 12h 12v -6a 6 6, 0, 0, 0, -6 -6" transform="rotate(180,286,334)"/><circle cx="286" cy="406" r="6" transform="rotate(0,286,406)"/><circle cx="286" cy="454" r="6" transform="rotate(0,286,454)"/><rect x="292" y="28" width="12" height="12" transform="rotate(0,298,34)"/><path d="M 292 52v 12h 12v -6a 6 6, 0, 0, 0, -6 -6" transform="rotate(0,298,58)"/><path d="M 292 64v 12h 6a 6 6, 0, 0, 0, 0 -12" transform="rotate(90,298,70)"/><path d="M 292 88v 12h 6a 6 6, 0, 0, 0, 0 -12" transform="rotate(-90,298,94)"/><rect x="292" y="100" width="12" height="12" transform="rotate(0,298,106)"/><rect x="292" y="112" width="12" height="12" transform="rotate(0,298,118)"/><path d="M 292 124v 12h 12v -6a 6 6, 0, 0, 0, -6 -6" transform="rotate(180,298,130)"/><path d="M 292 160v 12h 6a 6 6, 0, 0, 0, 0 -12" transform="rotate(-90,298,166)"/><rect x="292" y="172" width="12" height="12" transform="rotate(0,298,178)"/><rect x="292" y="184" width="12" height="12" transform="rotate(0,298,190)"/><rect x="292" y="196" width="12" height="12" transform="rotate(0,298,202)"/><path d="M 292 232v 12h 6a 6 6, 0, 0, 0, 0 -12" transform="rotate(-90,298,238)"/><rect x="292" y="244" width="12" height="12" transform="rotate(0,298,250)"/><path d="M 292 280v 12h 6a 6 6, 0, 0, 0, 0 -12" transform="rotate(-90,298,286)"/><rect x="292" y="292" width="12" height="12" transform="rotate(0,298,298)"/><rect x="292" y="304" width="12" height="12" transform="rotate(0,298,310)"/><path d="M 292 328v 12h 6a 6 6, 0, 0, 0, 0 -12" transform="rotate(0,298,334)"/><circle cx="298" cy="394" r="6" transform="rotate(0,298,394)"/><path d="M 292 412v 12h 6a 6 6, 0, 0, 0, 0 -12" transform="rotate(-90,298,418)"/><path d="M 292 424v 12h 12v -6a 6 6, 0, 0, 0, -6 -6" transform="rotate(180,298,430)"/><path d="M 304 28v 12h 12v -6a 6 6, 0, 0, 0, -6 -6" transform="rotate(0,310,34)"/><path d="M 304 40v 12h 6a 6 6, 0, 0, 0, 0 -12" transform="rotate(90,310,46)"/><path d="M 304 112v 12h 12v -6a 6 6, 0, 0, 0, -6 -6" transform="rotate(0,310,118)"/><rect x="304" y="124" width="12" height="12" transform="rotate(0,310,130)"/><path d="M 304 136v 12h 12v -6a 6 6, 0, 0, 0, -6 -6" transform="rotate(180,310,142)"/><rect x="304" y="172" width="12" height="12" transform="rotate(0,310,178)"/><path d="M 304 196v 12h 6a 6 6, 0, 0, 0, 0 -12" transform="rotate(0,310,202)"/><path d="M 304 220v 12h 6a 6 6, 0, 0, 0, 0 -12" transform="rotate(180,310,226)"/><rect x="304" y="244" width="12" height="12" transform="rotate(0,310,250)"/><path d="M 304 268v 12h 6a 6 6, 0, 0, 0, 0 -12" transform="rotate(180,310,274)"/><path d="M 304 292v 12h 12v -6a 6 6, 0, 0, 0, -6 -6" transform="rotate(0,310,298)"/><path d="M 304 304v 12h 12v -6a 6 6, 0, 0, 0, -6 -6" transform="rotate(90,310,310)"/><path d="M 304 352v 12h 6a 6 6, 0, 0, 0, 0 -12" transform="rotate(-90,310,358)"/><rect x="304" y="364" width="12" height="12" transform="rotate(0,310,370)"/><path d="M 304 376v 12h 12v -6a 6 6, 0, 0, 0, -6 -6" transform="rotate(180,310,382)"/><rect x="304" y="424" width="12" height="12" transform="rotate(0,310,430)"/><rect x="304" y="436" width="12" height="12" transform="rotate(0,310,442)"/><path d="M 304 448v 12h 12v -6a 6 6, 0, 0, 0, -6 -6" transform="rotate(180,310,454)"/><path d="M 316 52v 12h 6a 6 6, 0, 0, 0, 0 -12" transform="rotate(180,322,58)"/><circle cx="322" cy="106" r="6" transform="rotate(0,322,106)"/><path d="M 316 136v 12h 12v -6a 6 6, 0, 0, 0, -6 -6" transform="rotate(0,322,142)"/><path d="M 316 148v 12h 6a 6 6, 0, 0, 0, 0 -12" transform="rotate(90,322,154)"/><rect x="316" y="172" width="12" height="12" transform="rotate(0,322,178)"/><rect x="316" y="220" width="12" height="12" transform="rotate(0,322,226)"/><rect x="316" y="244" width="12" height="12" transform="rotate(0,322,250)"/><rect x="316" y="268" width="12" height="12" transform="rotate(0,322,274)"/><circle cx="322" cy="322" r="6" transform="rotate(0,322,322)"/><path d="M 316 340v 12h 6a 6 6, 0, 0, 0, 0 -12" transform="rotate(180,322,346)"/><rect x="316" y="376" width="12" height="12" transform="rotate(0,322,382)"/><rect x="316" y="388" width="12" height="12" transform="rotate(0,322,394)"/><rect x="316" y="400" width="12" height="12" transform="rotate(0,322,406)"/><rect x="316" y="412" width="12" height="12" transform="rotate(0,322,418)"/><rect x="316" y="424" width="12" height="12" transform="rotate(0,322,430)"/><rect x="316" y="436" width="12" height="12" transform="rotate(0,322,442)"/><rect x="316" y="448" width="12" height="12" transform="rotate(0,322,454)"/><path d="M 316 460v 12h 12v -6a 6 6, 0, 0, 0, -6 -6" transform="rotate(180,322,466)"/><rect x="328" y="52" width="12" height="12" transform="rotate(0,334,58)"/><path d="M 328 64v 12h 6a 6 6, 0, 0, 0, 0 -12" transform="rotate(90,334,70)"/><path d="M 328 112v 12h 6a 6 6, 0, 0, 0, 0 -12" transform="rotate(-90,334,118)"/><path d="M 328 124v 12h 12v -6a 6 6, 0, 0, 0, -6 -6" transform="rotate(180,334,130)"/><rect x="328" y="172" width="12" height="12" transform="rotate(0,334,178)"/><path d="M 328 196v 12h 6a 6 6, 0, 0, 0, 0 -12" transform="rotate(180,334,202)"/><path d="M 328 220v 12h 6a 6 6, 0, 0, 0, 0 -12" transform="rotate(0,334,226)"/><rect x="328" y="244" width="12" height="12" transform="rotate(0,334,250)"/><path d="M 328 268v 12h 12v -6a 6 6, 0, 0, 0, -6 -6" transform="rotate(0,334,274)"/><path d="M 328 280v 12h 12v -6a 6 6, 0, 0, 0, -6 -6" transform="rotate(180,334,286)"/><path d="M 328 328v 12h 12v -6a 6 6, 0, 0, 0, -6 -6" transform="rotate(-90,334,334)"/><rect x="328" y="340" width="12" height="12" transform="rotate(0,334,346)"/><path d="M 328 376v 12h 12v -6a 6 6, 0, 0, 0, -6 -6" transform="rotate(0,334,382)"/><rect x="328" y="388" width="12" height="12" transform="rotate(0,334,394)"/><rect x="328" y="400" width="12" height="12" transform="rotate(0,334,406)"/><rect x="328" y="412" width="12" height="12" transform="rotate(0,334,418)"/><rect x="328" y="424" width="12" height="12" transform="rotate(0,334,430)"/><path d="M 328 436v 12h 12v -6a 6 6, 0, 0, 0, -6 -6" transform="rotate(90,334,442)"/><path d="M 328 460v 12h 6a 6 6, 0, 0, 0, 0 -12" transform="rotate(0,334,466)"/><path d="M 340 40v 12h 6a 6 6, 0, 0, 0, 0 -12" transform="rotate(-90,346,46)"/><rect x="340" y="52" width="12" height="12" transform="rotate(0,346,58)"/><path d="M 340 88v 12h 6a 6 6, 0, 0, 0, 0 -12" transform="rotate(-90,346,94)"/><path d="M 340 100v 12h 6a 6 6, 0, 0, 0, 0 -12" transform="rotate(90,346,106)"/><rect x="340" y="124" width="12" height="12" transform="rotate(0,346,130)"/><path d="M 340 160v 12h 12v -6a 6 6, 0, 0, 0, -6 -6" transform="rotate(-90,346,166)"/><rect x="340" y="172" width="12" height="12" transform="rotate(0,346,178)"/><rect x="340" y="184" width="12" height="12" transform="rotate(0,346,190)"/><rect x="340" y="196" width="12" height="12" transform="rotate(0,346,202)"/><path d="M 340 208v 12h 6a 6 6, 0, 0, 0, 0 -12" transform="rotate(90,346,214)"/><rect x="340" y="244" width="12" height="12" transform="rotate(0,346,250)"/><rect x="340" y="280" width="12" height="12" transform="rotate(0,346,286)"/><path d="M 340 316v 12h 12v -6a 6 6, 0, 0, 0, -6 -6" transform="rotate(-90,346,322)"/><rect x="340" y="328" width="12" height="12" transform="rotate(0,346,334)"/><rect x="340" y="340" width="12" height="12" transform="rotate(0,346,346)"/><path d="M 340 364v 12h 6a 6 6, 0, 0, 0, 0 -12" transform="rotate(180,346,370)"/><path d="M 340 400v 12h 6a 6 6, 0, 0, 0, 0 -12" transform="rotate(0,346,406)"/><path d="M 340 448v 12h 6a 6 6, 0, 0, 0, 0 -12" transform="rotate(180,346,454)"/><circle cx="358" cy="34" r="6" transform="rotate(0,358,34)"/><path d="M 352 52v 12h 12v -6a 6 6, 0, 0, 0, -6 -6" transform="rotate(0,358,58)"/><rect x="352" y="64" width="12" height="12" transform="rotate(0,358,70)"/><path d="M 352 76v 12h 12v -6a 6 6, 0, 0, 0, -6 -6" transform="rotate(180,358,82)"/><path d="M 352 112v 12h 6a 6 6, 0, 0, 0, 0 -12" transform="rotate(-90,358,118)"/><rect x="352" y="124" width="12" height="12" transform="rotate(0,358,130)"/><rect x="352" y="136" width="12" height="12" transform="rotate(0,358,142)"/><rect x="352" y="148" width="12" height="12" transform="rotate(0,358,154)"/><rect x="352" y="160" width="12" height="12" transform="rotate(0,358,166)"/><rect x="352" y="184" width="12" height="12" transform="rotate(0,358,190)"/><path d="M 352 232v 12h 12v -6a 6 6, 0, 0, 0, -6 -6" transform="rotate(-90,358,238)"/><rect x="352" y="244" width="12" height="12" transform="rotate(0,358,250)"/><rect x="352" y="280" width="12" height="12" transform="rotate(0,358,286)"/><path d="M 352 304v 12h 12v -6a 6 6, 0, 0, 0, -6 -6" transform="rotate(-90,358,310)"/><path d="M 352 316v 12h 12v -6a 6 6, 0, 0, 0, -6 -6" transform="rotate(90,358,322)"/><path d="M 352 340v 12h 12v -6a 6 6, 0, 0, 0, -6 -6" transform="rotate(0,358,346)"/><rect x="352" y="352" width="12" height="12" transform="rotate(0,358,358)"/><rect x="352" y="364" width="12" height="12" transform="rotate(0,358,370)"/><path d="M 352 376v 12h 12v -6a 6 6, 0, 0, 0, -6 -6" transform="rotate(180,358,382)"/><path d="M 352 412v 12h 6a 6 6, 0, 0, 0, 0 -12" transform="rotate(180,358,418)"/><path d="M 352 448v 12h 12v -6a 6 6, 0, 0, 0, -6 -6" transform="rotate(0,358,454)"/><path d="M 352 460v 12h 12v -6a 6 6, 0, 0, 0, -6 -6" transform="rotate(180,358,466)"/><path d="M 364 76v 12h 6a 6 6, 0, 0, 0, 0 -12" transform="rotate(0,370,82)"/><circle cx="370" cy="106" r="6" transform="rotate(0,370,106)"/><rect x="364" y="124" width="12" height="12" transform="rotate(0,370,130)"/><path d="M 364 160v 12h 12v -6a 6 6, 0, 0, 0, -6 -6" transform="rotate(0,370,166)"/><rect x="364" y="172" width="12" height="12" transform="rotate(0,370,178)"/><rect x="364" y="184" width="12" height="12" transform="rotate(0,370,190)"/><rect x="364" y="196" width="12" height="12" transform="rotate(0,370,202)"/><rect x="364" y="208" width="12" height="12" transform="rotate(0,370,214)"/><rect x="364" y="220" width="12" height="12" transform="rotate(0,370,226)"/><rect x="364" y="232" width="12" height="12" transform="rotate(0,370,238)"/><rect x="364" y="244" width="12" height="12" transform="rotate(0,370,250)"/><path d="M 364 268v 12h 6a 6 6, 0, 0, 0, 0 -12" transform="rotate(-90,370,274)"/><rect x="364" y="280" width="12" height="12" transform="rotate(0,370,286)"/><rect x="364" y="292" width="12" height="12" transform="rotate(0,370,298)"/><rect x="364" y="304" width="12" height="12" transform="rotate(0,370,310)"/><path d="M 364 328v 12h 6a 6 6, 0, 0, 0, 0 -12" transform="rotate(180,370,334)"/><path d="M 364 352v 12h 12v -6a 6 6, 0, 0, 0, -6 -6" transform="rotate(0,370,358)"/><rect x="364" y="364" width="12" height="12" transform="rotate(0,370,370)"/><rect x="364" y="376" width="12" height="12" transform="rotate(0,370,382)"/><rect x="364" y="388" width="12" height="12" transform="rotate(0,370,394)"/><rect x="364" y="400" width="12" height="12" transform="rotate(0,370,406)"/><rect x="364" y="412" width="12" height="12" transform="rotate(0,370,418)"/><path d="M 364 436v 12h 6a 6 6, 0, 0, 0, 0 -12" transform="rotate(180,370,442)"/><rect x="364" y="460" width="12" height="12" transform="rotate(0,370,466)"/><path d="M 376 124v 12h 6a 6 6, 0, 0, 0, 0 -12" transform="rotate(0,382,130)"/><rect x="376" y="172" width="12" height="12" transform="rotate(0,382,178)"/><path d="M 376 196v 12h 6a 6 6, 0, 0, 0, 0 -12" transform="rotate(0,382,202)"/><path d="M 376 220v 12h 6a 6 6, 0, 0, 0, 0 -12" transform="rotate(0,382,226)"/><rect x="376" y="244" width="12" height="12" transform="rotate(0,382,250)"/><path d="M 376 256v 12h 12v -6a 6 6, 0, 0, 0, -6 -6" transform="rotate(180,382,262)"/><path d="M 376 292v 12h 12v -6a 6 6, 0, 0, 0, -6 -6" transform="rotate(0,382,298)"/><path d="M 376 304v 12h 12v -6a 6 6, 0, 0, 0, -6 -6" transform="rotate(90,382,310)"/><path d="M 376 328v 12h 6a 6 6, 0, 0, 0, 0 -12" transform="rotate(0,382,334)"/><rect x="376" y="364" width="12" height="12" transform="rotate(0,382,370)"/><rect x="376" y="412" width="12" height="12" transform="rotate(0,382,418)"/><rect x="376" y="424" width="12" height="12" transform="rotate(0,382,430)"/><rect x="376" y="436" width="12" height="12" transform="rotate(0,382,442)"/><rect x="376" y="448" width="12" height="12" transform="rotate(0,382,454)"/><rect x="376" y="460" width="12" height="12" transform="rotate(0,382,466)"/><path d="M 388 148v 12h 12v -6a 6 6, 0, 0, 0, -6 -6" transform="rotate(-90,394,154)"/><rect x="388" y="160" width="12" height="12" transform="rotate(0,394,166)"/><rect x="388" y="172" width="12" height="12" transform="rotate(0,394,178)"/><path d="M 388 184v 12h 12v -6a 6 6, 0, 0, 0, -6 -6" transform="rotate(180,394,190)"/><circle cx="394" cy="214" r="6" transform="rotate(0,394,214)"/><path d="M 388 232v 12h 12v -6a 6 6, 0, 0, 0, -6 -6" transform="rotate(-90,394,238)"/><rect x="388" y="244" width="12" height="12" transform="rotate(0,394,250)"/><path d="M 388 256v 12h 12v -6a 6 6, 0, 0, 0, -6 -6" transform="rotate(90,394,262)"/><circle cx="394" cy="286" r="6" transform="rotate(0,394,286)"/><circle cx="394" cy="322" r="6" transform="rotate(0,394,322)"/><circle cx="394" cy="346" r="6" transform="rotate(0,394,346)"/><rect x="388" y="364" width="12" height="12" transform="rotate(0,394,370)"/><circle cx="394" cy="394" r="6" transform="rotate(0,394,394)"/><rect x="388" y="412" width="12" height="12" transform="rotate(0,394,418)"/><rect x="388" y="424" width="12" height="12" transform="rotate(0,394,430)"/><rect x="388" y="448" width="12" height="12" transform="rotate(0,394,454)"/><rect x="388" y="460" width="12" height="12" transform="rotate(0,394,466)"/><path d="M 400 124v 12h 6a 6 6, 0, 0, 0, 0 -12" transform="rotate(-90,406,130)"/><rect x="400" y="136" width="12" height="12" transform="rotate(0,406,142)"/><rect x="400" y="148" width="12" height="12" transform="rotate(0,406,154)"/><path d="M 400 160v 12h 12v -6a 6 6, 0, 0, 0, -6 -6" transform="rotate(90,406,166)"/><path d="M 400 184v 12h 12v -6a 6 6, 0, 0, 0, -6 -6" transform="rotate(0,406,190)"/><path d="M 400 196v 12h 12v -6a 6 6, 0, 0, 0, -6 -6" transform="rotate(180,406,202)"/><path d="M 400 220v 12h 6a 6 6, 0, 0, 0, 0 -12" transform="rotate(-90,406,226)"/><rect x="400" y="232" width="12" height="12" transform="rotate(0,406,238)"/><circle cx="406" cy="274" r="6" transform="rotate(0,406,274)"/><path d="M 400 292v 12h 6a 6 6, 0, 0, 0, 0 -12" transform="rotate(180,406,298)"/><path d="M 400 352v 12h 6a 6 6, 0, 0, 0, 0 -12" transform="rotate(-90,406,358)"/><rect x="400" y="364" width="12" height="12" transform="rotate(0,406,370)"/><rect x="400" y="412" width="12" height="12" transform="rotate(0,406,418)"/><rect x="400" y="424" width="12" height="12" transform="rotate(0,406,430)"/><rect x="400" y="448" width="12" height="12" transform="rotate(0,406,454)"/><rect x="400" y="460" width="12" height="12" transform="rotate(0,406,466)"/><path d="M 412 148v 12h 6a 6 6, 0, 0, 0, 0 -12" transform="rotate(0,418,154)"/><path d="M 412 196v 12h 12v -6a 6 6, 0, 0, 0, -6 -6" transform="rotate(0,418,202)"/><path d="M 412 208v 12h 12v -6a 6 6, 0, 0, 0, -6 -6" transform="rotate(180,418,214)"/><rect x="412" y="232" width="12" height="12" transform="rotate(0,418,238)"/><rect x="412" y="244" width="12" height="12" transform="rotate(0,418,250)"/><path d="M 412 256v 12h 6a 6 6, 0, 0, 0, 0 -12" transform="rotate(90,418,262)"/><rect x="412" y="292" width="12" height="12" transform="rotate(0,418,298)"/><path d="M 412 316v 12h 6a 6 6, 0, 0, 0, 0 -12" transform="rotate(180,418,322)"/><path d="M 412 340v 12h 6a 6 6, 0, 0, 0, 0 -12" transform="rotate(180,418,346)"/><rect x="412" y="364" width="12" height="12" transform="rotate(0,418,370)"/><rect x="412" y="376" width="12" height="12" transform="rotate(0,418,382)"/><rect x="412" y="388" width="12" height="12" transform="rotate(0,418,394)"/><rect x="412" y="400" width="12" height="12" transform="rotate(0,418,406)"/><rect x="412" y="412" width="12" height="12" transform="rotate(0,418,418)"/><rect x="412" y="424" width="12" height="12" transform="rotate(0,418,430)"/><rect x="412" y="448" width="12" height="12" transform="rotate(0,418,454)"/><path d="M 412 460v 12h 12v -6a 6 6, 0, 0, 0, -6 -6" transform="rotate(90,418,466)"/><path d="M 424 124v 12h 12v -6a 6 6, 0, 0, 0, -6 -6" transform="rotate(-90,430,130)"/><path d="M 424 136v 12h 6a 6 6, 0, 0, 0, 0 -12" transform="rotate(90,430,142)"/><path d="M 424 160v 12h 6a 6 6, 0, 0, 0, 0 -12" transform="rotate(180,430,166)"/><path d="M 424 208v 12h 12v -6a 6 6, 0, 0, 0, -6 -6" transform="rotate(0,430,214)"/><rect x="424" y="220" width="12" height="12" transform="rotate(0,430,226)"/><rect x="424" y="232" width="12" height="12" transform="rotate(0,430,238)"/><path d="M 424 268v 12h 12v -6a 6 6, 0, 0, 0, -6 -6" transform="rotate(-90,430,274)"/><rect x="424" y="280" width="12" height="12" transform="rotate(0,430,286)"/><rect x="424" y="292" width="12" height="12" transform="rotate(0,430,298)"/><rect x="424" y="316" width="12" height="12" transform="rotate(0,430,322)"/><rect x="424" y="340" width="12" height="12" transform="rotate(0,430,346)"/><path d="M 424 364v 12h 6a 6 6, 0, 0, 0, 0 -12" transform="rotate(0,430,370)"/><rect x="424" y="388" width="12" height="12" transform="rotate(0,430,394)"/><rect x="424" y="412" width="12" height="12" transform="rotate(0,430,418)"/><path d="M 424 424v 12h 12v -6a 6 6, 0, 0, 0, -6 -6" transform="rotate(90,430,430)"/><rect x="424" y="448" width="12" height="12" transform="rotate(0,430,454)"/><rect x="436" y="124" width="12" height="12" transform="rotate(0,442,130)"/><path d="M 436 160v 12h 6a 6 6, 0, 0, 0, 0 -12" transform="rotate(0,442,166)"/><path d="M 436 184v 12h 12v -6a 6 6, 0, 0, 0, -6 -6" transform="rotate(-90,442,190)"/><path d="M 436 196v 12h 12v -6a 6 6, 0, 0, 0, -6 -6" transform="rotate(180,442,202)"/><path d="M 436 232v 12h 12v -6a 6 6, 0, 0, 0, -6 -6" transform="rotate(0,442,238)"/><rect x="436" y="244" width="12" height="12" transform="rotate(0,442,250)"/><rect x="436" y="256" width="12" height="12" transform="rotate(0,442,262)"/><rect x="436" y="268" width="12" height="12" transform="rotate(0,442,274)"/><rect x="436" y="292" width="12" height="12" transform="rotate(0,442,298)"/><rect x="436" y="304" width="12" height="12" transform="rotate(0,442,310)"/><path d="M 436 316v 12h 12v -6a 6 6, 0, 0, 0, -6 -6" transform="rotate(90,442,322)"/><rect x="436" y="340" width="12" height="12" transform="rotate(0,442,346)"/><path d="M 436 388v 12h 12v -6a 6 6, 0, 0, 0, -6 -6" transform="rotate(0,442,394)"/><rect x="436" y="400" width="12" height="12" transform="rotate(0,442,406)"/><rect x="436" y="412" width="12" height="12" transform="rotate(0,442,418)"/><path d="M 436 436v 12h 12v -6a 6 6, 0, 0, 0, -6 -6" transform="rotate(-90,442,442)"/><path d="M 436 448v 12h 12v -6a 6 6, 0, 0, 0, -6 -6" transform="rotate(90,442,454)"/><path d="M 448 124v 12h 6a 6 6, 0, 0, 0, 0 -12" transform="rotate(0,454,130)"/><path d="M 448 172v 12h 6a 6 6, 0, 0, 0, 0 -12" transform="rotate(-90,454,178)"/><rect x="448" y="184" width="12" height="12" transform="rotate(0,454,190)"/><rect x="448" y="196" width="12" height="12" transform="rotate(0,454,202)"/><path d="M 448 208v 12h 12v -6a 6 6, 0, 0, 0, -6 -6" transform="rotate(180,454,214)"/><rect x="448" y="244" width="12" height="12" transform="rotate(0,454,250)"/><path d="M 448 268v 12h 6a 6 6, 0, 0, 0, 0 -12" transform="rotate(0,454,274)"/><rect x="448" y="292" width="12" height="12" transform="rotate(0,454,298)"/><path d="M 448 328v 12h 12v -6a 6 6, 0, 0, 0, -6 -6" transform="rotate(-90,454,334)"/><rect x="448" y="340" width="12" height="12" transform="rotate(0,454,346)"/><path d="M 448 412v 12h 12v -6a 6 6, 0, 0, 0, -6 -6" transform="rotate(0,454,418)"/><rect x="448" y="424" width="12" height="12" transform="rotate(0,454,430)"/><rect x="448" y="436" width="12" height="12" transform="rotate(0,454,442)"/><circle cx="466" cy="154" r="6" transform="rotate(0,466,154)"/><path d="M 460 196v 12h 12v -6a 6 6, 0, 0, 0, -6 -6" transform="rotate(0,466,202)"/><rect x="460" y="208" width="12" height="12" transform="rotate(0,466,214)"/><path d="M 460 220v 12h 6a 6 6, 0, 0, 0, 0 -12" transform="rotate(90,466,226)"/><path d="M 460 244v 12h 12v -6a 6 6, 0, 0, 0, -6 -6" transform="rotate(0,466,250)"/><path d="M 460 256v 12h 6a 6 6, 0, 0, 0, 0 -12" transform="rotate(90,466,262)"/><path d="M 460 292v 12h 6a 6 6, 0, 0, 0, 0 -12" transform="rotate(0,466,298)"/><path d="M 460 328v 12h 12v -6a 6 6, 0, 0, 0, -6 -6" transform="rotate(0,466,334)"/><path d="M 460 340v 12h 12v -6a 6 6, 0, 0, 0, -6 -6" transform="rotate(90,466,346)"/><circle cx="466" cy="382" r="6" transform="rotate(0,466,382)"/><path d="M 460 436v 12h 12v -6a 6 6, 0, 0, 0, -6 -6" transform="rotate(0,466,442)"/><rect x="460" y="448" width="12" height="12" transform="rotate(0,466,454)"/><path d="M 460 460v 12h 6a 6 6, 0, 0, 0, 0 -12" transform="rotate(90,466,466)"/></clipPath><clipPath id="clip-path-corners-square-color-0-0"><path clip-rule="evenodd" d="M 28 58v 24a 30 30, 0, 0, 0, 30 30h 24a 30 30, 0, 0, 0, 30 -30v -24a 30 30, 0, 0, 0, -30 -30h -24a 30 30, 0, 0, 0, -30 30M 58 40h 24a 18 18, 0, 0, 1, 18 18v 24a 18 18, 0, 0, 1, -18 18h -24a 18 18, 0, 0, 1, -18 -18v -24a 18 18, 0, 0, 1, 18 -18" transform="rotate(0,70,70)"/></clipPath><clipPath id="clip-path-corners-dot-color-0-0"><circle cx="70" cy="70" r="18" transform="rotate(0,70,70)"/></clipPath><clipPath id="clip-path-corners-square-color-1-0"><path clip-rule="evenodd" d="M 388 58v 24a 30 30, 0, 0, 0, 30 30h 24a 30 30, 0, 0, 0, 30 -30v -24a 30 30, 0, 0, 0, -30 -30h -24a 30 30, 0, 0, 0, -30 30M 418 40h 24a 18 18, 0, 0, 1, 18 18v 24a 18 18, 0, 0, 1, -18 18h -24a 18 18, 0, 0, 1, -18 -18v -24a 18 18, 0, 0, 1, 18 -18" transform="rotate(90,430,70)"/></clipPath><clipPath id="clip-path-corners-dot-color-1-0"><circle cx="430" cy="70" r="18" transform="rotate(90,430,70)"/></clipPath><clipPath id="clip-path-corners-square-color-0-1"><path clip-rule="evenodd" d="M 28 418v 24a 30 30, 0, 0, 0, 30 30h 24a 30 30, 0, 0, 0, 30 -30v -24a 30 30, 0, 0, 0, -30 -30h -24a 30 30, 0, 0, 0, -30 30M 58 400h 24a 18 18, 0, 0, 1, 18 18v 24a 18 18, 0, 0, 1, -18 18h -24a 18 18, 0, 0, 1, -18 -18v -24a 18 18, 0, 0, 1, 18 -18" transform="rotate(-90,70,430)"/></clipPath><clipPath id="clip-path-corners-dot-color-0-1"><circle cx="70" cy="430" r="18" transform="rotate(-90,70,430)"/></clipPath></defs><rect x="0" y="0" height="500" width="500" clip-path="url('#clip-path-background-color')" fill="#fff"/><rect x="0" y="0" height="500" width="500" clip-path="url('#clip-path-dot-color')" fill="#000000"/><rect x="28" y="28" height="84" width="84" clip-path="url('#clip-path-corners-square-color-0-0')" fill="#000000"/><rect x="52" y="52" height="36" width="36" clip-path="url('#clip-path-corners-dot-color-0-0')" fill="#000000"/><rect x="388" y="28" height="84" width="84" clip-path="url('#clip-path-corners-square-color-1-0')" fill="#000000"/><rect x="412" y="52" height="36" width="36" clip-path="url('#clip-path-corners-dot-color-1-0')" fill="#000000"/><rect x="28" y="388" height="84" width="84" clip-path="url('#clip-path-corners-square-color-0-1')" fill="#000000"/><rect x="52" y="412" height="36" width="36" clip-path="url('#clip-path-corners-dot-color-0-1')" fill="#000000"/></svg>